<svg xmlns="http://www.w3.org/2000/svg"  viewBox="0 0 50 50" width="100px" height="100px" fill="#fff"><path d="M 25 2 C 12.309288 2 2 12.309297 2 25 C 2 37.690703 12.309288 48 25 48 C 37.690712 48 48 37.690703 48 25 C 48 12.309297 37.690712 2 25 2 z M 25 4 C 36.609833 4 46 13.390175 46 25 C 46 36.609825 36.609833 46 25 46 C 13.390167 46 4 36.609825 4 25 C 4 13.390175 13.390167 4 25 4 z M 30.648438 9.0019531 C 28.910804 9.0308606 27.034844 9.360625 25.191406 10.015625 C 21.680406 11.262625 17.880437 13.221344 15.148438 15.777344 C 11.899437 18.816344 11.38075 21.460406 11.59375 22.566406 C 12.34675 26.466406 17.691672 29.016203 19.888672 30.908203 L 19.888672 30.919922 C 19.240672 31.238922 14.499625 33.636844 13.390625 36.089844 C 12.219625 38.677844 13.575609 40.535156 14.474609 40.785156 C 17.258609 41.560156 20.114391 40.165953 21.650391 37.876953 C 23.131391 35.666953 23.009234 32.814531 22.365234 31.394531 C 23.253234 31.160531 24.287516 31.054031 25.603516 31.207031 C 29.316516 31.641031 30.04525 33.959687 29.90625 34.929688 C 29.76725 35.899687 28.988516 36.434703 28.728516 36.595703 C 28.468516 36.756703 28.388156 36.811641 28.410156 36.931641 C 28.442156 37.105641 28.561203 37.1005 28.783203 37.0625 C 29.089203 37.0105 30.734688 36.273422 30.804688 34.482422 C 30.894687 32.208422 28.713469 29.664469 24.855469 29.730469 C 23.266469 29.757469 22.268875 29.909734 21.546875 30.177734 C 21.493875 30.116734 21.438813 30.056094 21.382812 29.996094 C 18.997813 27.451094 14.586437 25.651469 14.773438 22.230469 C 14.841437 20.986469 15.273094 17.711281 23.246094 13.738281 C 29.777094 10.484281 35.007156 11.380234 35.910156 13.365234 C 37.201156 16.201234 33.115031 21.470469 26.332031 22.230469 C 23.748031 22.520469 22.388781 21.519484 22.050781 21.146484 C 21.694781 20.753484 21.640812 20.735594 21.507812 20.808594 C 21.290813 20.928594 21.428813 21.276422 21.507812 21.482422 C 21.710812 22.009422 22.541031 22.943203 23.957031 23.408203 C 25.203031 23.817203 28.238203 24.043047 31.908203 22.623047 C 36.016203 21.033047 39.225203 16.610063 38.283203 12.914062 C 37.624578 10.32975 34.47123 8.9383567 30.648438 9.0019531 z M 20.798828 32.072266 C 21.106828 33.211266 21.073859 34.272375 20.755859 35.234375 C 20.720859 35.341375 20.680672 35.448734 20.638672 35.552734 C 20.596672 35.656734 20.550953 35.759328 20.501953 35.861328 C 20.256953 36.370328 19.927437 36.845156 19.523438 37.285156 C 18.293437 38.627156 16.576844 39.135031 15.839844 38.707031 C 15.043844 38.246031 15.441187 36.354656 16.867188 34.847656 C 18.401187 33.225656 20.609375 32.183594 20.609375 32.183594 L 20.605469 32.175781 C 20.668469 32.142781 20.733828 32.108266 20.798828 32.072266 z"/></svg>